<svg width="14" height="4" viewBox="0 0 14 4" fill="none" xmlns="http://www.w3.org/2000/svg">
  <path d="M3.5 2C3.5 2.82843 2.82843 3.5 2 3.5C1.17157 3.5 0.5 2.82843 0.5 2C0.5 1.17157 1.17157 0.5 2 0.5C2.82843 0.5 3.5 1.17157 3.5 2Z" fill="#9A9FA8"/>
  <path d="M8.5 2C8.5 2.82843 7.82843 3.5 7 3.5C6.17157 3.5 5.5 2.82843 5.5 2C5.5 1.17157 6.17157 0.5 7 0.5C7.82843 0.5 8.5 1.17157 8.5 2Z" fill="#9A9FA8"/>
  <path d="M13.5 2C13.5 2.82843 12.8284 3.5 12 3.5C11.1716 3.5 10.5 2.82843 10.5 2C10.5 1.17157 11.1716 0.5 12 0.5C12.8284 0.5 13.5 1.17157 13.5 2Z" fill="#9A9FA8"/>
</svg>
